<?xml version="1.0" standalone="no"?>
<!DOCTYPE svg PUBLIC "-//W3C//DTD SVG 20010904//EN"
 "http://www.w3.org/TR/2001/REC-SVG-20010904/DTD/svg10.dtd">
<svg version="1.0" xmlns="http://www.w3.org/2000/svg"
 width="512.000000pt" height="512.000000pt" viewBox="0 0 512.000000 512.000000"
 preserveAspectRatio="xMidYMid meet">
<metadata>
Created by potrace 1.14, written by Peter Selinger 2001-2017
</metadata>
<g transform="translate(0.000000,512.000000) scale(0.100000,-0.100000)"
fill="#000000" stroke="none">
<path d="M315 5032 c-146 -24 -257 -121 -298 -262 -15 -50 -16 -216 -14 -1819
l2 -1765 35 -3 c51 -6 130 -45 169 -84 111 -112 111 -311 0 -418 -49 -48 -132
-85 -203 -90 -4 -1 -6 -52 -4 -114 3 -100 7 -120 34 -177 39 -83 101 -145 184
-184 l65 -31 1830 0 1829 0 7 41 c28 160 172 269 332 250 127 -16 237 -122
253 -246 l6 -49 142 3 c115 3 152 8 199 26 78 29 142 84 190 163 47 76 46 23
46 1885 l1 1752 -25 0 c-34 0 -103 28 -143 58 -119 87 -152 264 -73 392 45 74
145 134 229 139 17 1 15 202 -2 264 -24 89 -75 158 -156 213 -93 64 18 61
-2012 61 l-1848 1 0 -23 c0 -46 -34 -127 -72 -170 -24 -27 -64 -56 -102 -75
-55 -26 -72 -29 -132 -26 -146 7 -257 106 -283 251 l-7 40 -79 0 c-44 1 -89
-1 -100 -3z"/>
</g>
</svg>
